<svg xmlns="http://www.w3.org/2000/svg" viewBox="0 0 1280 640" width="1280" height="640" font-family="DejaVu Sans, Arial, sans-serif">
<defs>
  <radialGradient id="glow" cx="78%" cy="12%" r="70%">
    <stop offset="0%" stop-color="#2fe39a" stop-opacity="0.10"/>
    <stop offset="55%" stop-color="#2fe39a" stop-opacity="0"/>
  </radialGradient>
</defs>
<rect width="1280" height="640" fill="#0a0c0e"/>
<rect width="1280" height="640" fill="url(#glow)"/>
<rect x="6" y="6" width="1268" height="628" rx="20" fill="none" stroke="#232a31" stroke-width="2"/>

<!-- icon -->
<rect x="96" y="176" width="288" height="288" rx="56" fill="#13171b" stroke="#232a31" stroke-width="2"/>
<g transform="translate(96,176) scale(2.25)">
    <path d="M 67.07 20.11 A 44 44 0 0 1 104.80 47.52" stroke="#4d8df0" stroke-width="9" fill="none" stroke-linecap="round"/>
    <path d="M 106.69 53.36 A 44 44 0 0 1 92.28 97.71" stroke="#2fe39a" stroke-width="9" fill="none" stroke-linecap="round"/>
    <path d="M 87.32 101.31 A 44 44 0 0 1 40.68 101.31" stroke="#ff5a5a" stroke-width="9" fill="none" stroke-linecap="round"/>
    <path d="M 35.72 97.71 A 44 44 0 0 1 21.31 53.36" stroke="#f6943e" stroke-width="9" fill="none" stroke-linecap="round"/>
    <path d="M 23.20 47.52 A 44 44 0 0 1 60.93 20.11" stroke="#b06cf0" stroke-width="9" fill="none" stroke-linecap="round"/>
    <circle cx="64" cy="64" r="24" fill="none" stroke="#2fe39a" stroke-width="5" opacity="0.5"/>
    <circle cx="64" cy="64" r="9" fill="#2fe39a"/>
</g>

<!-- text -->
<text x="470" y="232" font-size="26" font-weight="700" letter-spacing="6" fill="#74828e">MULTISPECTRAL PREFLIGHT</text>
<text x="468" y="330" font-size="98" font-weight="700" fill="#e7eef4"><tspan fill="#ff5a5a">Red</tspan>Edge</text>
<text x="472" y="392" font-size="46" font-weight="700" fill="#e7eef4">Readiness</text>
<text x="470" y="446" font-size="27" fill="#9aa7b2">Is the sensor ready to capture good data, right now?</text>
<circle cx="478" cy="470" r="9" fill="#4d8df0"/><circle cx="508" cy="470" r="9" fill="#2fe39a"/><circle cx="538" cy="470" r="9" fill="#ff5a5a"/><circle cx="568" cy="470" r="9" fill="#f6943e"/><circle cx="598" cy="470" r="9" fill="#b06cf0"/>
<text x="478" y="520" font-size="22" fill="#74828e">GO  /  CHECK  /  NO-GO  .  fails toward caution</text>
</svg>
